PathFileType	4	(X/Y/Z)	./resultDataOpenSim/trcMotMarkerGrf/sub06/qtm-12-02.trc
DataRate	CameraRate	NumFrames	NumMarkers	Units	OrigDataRate	OrigDataStartFrame	OrigNumFrames
250.000000	250.000000	12	24	m	250.000000	242	482
Frame#	Time	L.Toe.Tip			R.Toe.Tip			L.Ankle.Lat			R.Ankle.Lat			L.Ankle.Med			R.Ankle.Med			L.Heel			R.Heel			L.Knee.Lat			R.Knee.Lat			L.Knee.Med			R.Knee.Med			L.Thigh.Upper			R.Thigh.Upper			L.ASIS			R.ASIS			V.Sacral			L.Acromium			R.Acromium			C7			L.Elbow			R.Elbow			L.Wrist.Lat			R.Wrist.Lat
		X1	Y1	Z1	X2	Y2	Z2	X3	Y3	Z3	X4	Y4	Z4	X5	Y5	Z5	X6	Y6	Z6	X7	Y7	Z7	X8	Y8	Z8	X9	Y9	Z9	X10	Y10	Z10	X11	Y11	Z11	X12	Y12	Z12	X13	Y13	Z13	X14	Y14	Z14	X15	Y15	Z15	X16	Y16	Z16	X17	Y17	Z17	X18	Y18	Z18	X19	Y19	Z19	X20	Y20	Z20	X21	Y21	Z21	X22	Y22	Z22	X23	Y23	Z23	X24	Y24	Z24

242	0.964	0.20565517	0.0096605753	-0.0486799	0.84629172	0.11856265	0.090085785	0.092102662	0.07127878	-0.071719997	0.70826165	0.097339795	0.11586107	0.101973	0.087928368	0.014115737	0.72175297	0.12739398	0.03057776	0.017466688	0.061735349	-0.021350039	0.66991916	0.057867936	0.054358526	0.23529376	0.41443163	-0.096974806	0.59096385	0.46941958	0.12496692	0.22767071	0.42391595	0.026917091	0.56041973	0.44034505	0.0012790984	0.32560245	0.78946524	-0.16620083	0.40478114	0.78795418	0.17328325	0.41702823	0.83153205	-0.14066322	0.4733041	0.8414163	0.098566477	0.2656949	0.9118747	0.025117521	0.41557566	1.3209458	-0.1905581	0.4036141	1.3112374	0.17210086	0.32916392	1.3535383	-0.01490507	0.44808208	0.99218121	-0.25536903	0.23898679	1.0476229	0.22921238	0.69472185	0.9519133	-0.21069126	0.24808819	0.82367496	0.30838254
243	0.968	0.20569122	0.0096368741	-0.048718576	0.85961775	0.12122501	0.089246575	0.092738253	0.072053795	-0.072087302	0.7217042	0.097616839	0.11493442	0.10284187	0.088628293	0.013690507	0.73475293	0.12806824	0.029889214	0.018031568	0.063243591	-0.021950099	0.68398028	0.057650719	0.053405975	0.23984442	0.41369098	-0.09733301	0.59864172	0.46727585	0.12507718	0.23314262	0.42313283	0.026120026	0.56776533	0.43769251	0.00058024792	0.3315182	0.78816214	-0.16606188	0.41421757	0.78555598	0.17260832	0.42344506	0.8300742	-0.14125251	0.48153707	0.83980238	0.097976412	0.27256438	0.91052552	0.026187626	0.4222187	1.3194694	-0.19038818	0.41049252	1.3097187	0.17236108	0.33594232	1.3520252	-0.014616575	0.45687545	0.99077638	-0.25496085	0.24526369	1.0466367	0.22917945	0.70397829	0.95399026	-0.20910133	0.25255344	0.82300419	0.30927823
244	0.972	0.20573203	0.0096173568	-0.048755487	0.87211567	0.12364267	0.088431648	0.093364765	0.072874525	-0.072453373	0.73437533	0.097747972	0.11390575	0.10375875	0.089371485	0.013256067	0.74707059	0.12857554	0.029074417	0.018648919	0.064829514	-0.022563751	0.69730162	0.057316828	0.052300389	0.24452994	0.41288156	-0.09771179	0.60671053	0.46528807	0.1253073	0.23868641	0.42219298	0.025425774	0.57534347	0.4352017	-8.4270522e-05	0.33748689	0.78684459	-0.16592751	0.42338658	0.78326729	0.17209293	0.42989662	0.8285947	-0.14182926	0.48980499	0.8382217	0.097436334	0.27881852	0.9094993	0.027438056	0.42887292	1.3179872	-0.19022135	0.41740649	1.3081774	0.17264044	0.34275702	1.350504	-0.014300256	0.46574129	0.9893713	-0.25449835	0.25157166	1.0456088	0.22919628	0.71312583	0.95600186	-0.20755772	0.25717165	0.82227192	0.3101741
245	0.976	0.2057739	0.0095990192	-0.048795483	0.88382618	0.1256695	0.087678576	0.094049499	0.073736252	-0.072825327	0.74630285	0.097698979	0.11278474	0.10467825	0.090173246	0.01283962	0.75876766	0.12890512	0.028152568	0.019322251	0.066503969	-0.023169109	0.70989575	0.05687771	0.051052925	0.24932456	0.41202006	-0.098132956	0.61520529	0.46344417	0.12561527	0.24421567	0.42107863	0.024912182	0.5831635	0.43287776	-0.00071432873	0.34350921	0.78551746	-0.16581125	0.43220911	0.78114428	0.17178193	0.43638521	0.82710539	-0.14239032	0.4980065	0.83662469	0.09689572	0.2848644	0.90863006	0.028765001	0.43554143	1.3164986	-0.1900497	0.42436475	1.3066159	0.17293998	0.349619	1.3489741	-0.013956207	0.47467287	0.98797294	-0.25399531	0.25790587	1.0445491	0.22927212	0.72216177	0.9579254	-0.20604367	0.26198208	0.82148658	0.31107882
246	0.98	0.20581797	0.0095802512	-0.048840706	0.89480536	0.12718784	0.087026094	0.094855312	0.074627175	-0.073221255	0.75751118	0.097440173	0.11159501	0.10560273	0.091033366	0.012438588	0.76988366	0.12904196	0.027150158	0.020057338	0.068272551	-0.023763901	0.72175892	0.056329713	0.049683255	0.2542058	0.41112358	-0.098620164	0.62400321	0.46170014	0.12588252	0.2496982	0.41981995	0.024569157	0.59120174	0.43074075	-0.0013369122	0.34958944	0.78418313	-0.16571842	0.44074137	0.77918028	0.17166034	0.44290535	0.82562567	-0.14293995	0.50611844	0.83499426	0.096339858	0.29150843	0.90756731	0.029879549	0.44222273	1.315007	-0.18986391	0.43137577	1.3050381	0.17326113	0.35653293	1.3474373	-0.013585017	0.48359901	0.9865644	-0.25351129	0.26426593	1.04346	0.22940609	0.73108625	0.95974585	-0.20454928	0.26701237	0.82065401	0.3119968
247	0.984	0.20586796	0.0095617142	-0.048890311	0.90511462	0.1281173	0.086469156	0.095782188	0.075552794	-0.07365811	0.76802767	0.09694812	0.11035767	0.10659165	0.091946185	0.012028088	0.78040624	0.12896222	0.026095492	0.020871122	0.070136494	-0.024370567	0.73287146	0.055650446	0.048221716	0.25916828	0.41020733	-0.09918155	0.63289329	0.46000822	0.12600472	0.25514142	0.41849724	0.024317328	0.59942512	0.42883788	-0.001983597	0.35574748	0.78284096	-0.16563479	0.44908057	0.77734843	0.17169382	0.44945732	0.82417541	-0.1434902	0.51417854	0.83334584	0.095783514	0.29945969	0.90599735	0.030408884	0.44891689	1.3135213	-0.18966198	0.43844639	1.3034501	0.17360591	0.36349899	1.3458998	-0.013181997	0.49245041	0.98512791	-0.25316164	0.27068536	1.0423412	0.22958401	0.73990106	0.96145761	-0.20307695	0.27225442	0.81977398	0.31292037
248	0.988	0.20592602	0.0095462571	-0.048943098	0.91480309	0.12841987	0.085961066	0.096789345	0.076537483	-0.074143937	0.77787637	0.096205278	0.10908522	0.10768652	0.092912296	0.011587925	0.79029588	0.12863312	0.025005438	0.021794199	0.072094258	-0.02499601	0.74321484	0.054808486	0.046711524	0.26423188	0.40928294	-0.099793336	0.64171476	0.45834536	0.12595348	0.26060463	0.41719792	0.024044717	0.60780613	0.42722828	-0.0026731325	0.36201146	0.78148862	-0.16552976	0.45731716	0.77562427	0.17185017	0.45605612	0.82276037	-0.14405017	0.52222546	0.83169968	0.095237713	0.30880078	0.90387731	0.030155329	0.45562814	1.3120509	-0.18944291	0.445584	1.3018586	0.17397622	0.37051419	1.3443693	-0.012741983	0.50119546	0.98367413	-0.25296496	0.27721704	1.0411923	0.2297849	0.74860906	0.96306026	-0.20163276	0.27768861	0.81884616	0.31383936
249	0.992	0.20599238	0.0095364588	-0.048998396	0.92389057	0.12810424	0.085451131	0.097863919	0.077595844	-0.074673605	0.78707042	0.095199455	0.10778973	0.10887992	0.093942279	0.011104451	0.79953184	0.12801237	0.023885934	0.022868704	0.074122548	-0.025623139	0.7527857	0.053773095	0.04519666	0.26942737	0.40835811	-0.10041772	0.65040925	0.45672013	0.12575306	0.26619589	0.41597967	0.02363706	0.61632131	0.42593962	-0.0033902853	0.3683989	0.78012951	-0.1653866	0.46552774	0.77398984	0.17210344	0.46272333	0.82137242	-0.14461974	0.53027518	0.83006439	0.094694929	0.31862227	0.90157784	0.029452843	0.46236326	1.3106012	-0.18920047	0.45279796	1.3002658	0.17437228	0.37757772	1.3428522	-0.01226602	0.50983622	0.98223416	-0.25279113	0.28387623	1.0400118	0.23000327	0.75721782	0.9645586	-0.20021824	0.28331478	0.81787638	0.31475161
250	0.996	0.20606613	0.0095326452	-0.04905579	0.93236742	0.12722078	0.084893221	0.099070274	0.078703054	-0.075232058	0.79561593	0.09392352	0.1064861	0.11015316	0.0950507	0.010564825	0.8081289	0.12705714	0.022732622	0.024118826	0.076178803	-0.026275519	0.76158753	0.052518367	0.043706292	0.27476903	0.40744157	-0.10103983	0.65898371	0.45517298	0.12542802	0.27200621	0.41487741	0.023013061	0.62494118	0.42494424	-0.004083083	0.374913	0.77877408	-0.1652123	0.47378476	0.77243034	0.17243082	0.4694757	0.82001	-0.1451969	0.53833442	0.82844145	0.094138822	0.3275858	0.89963739	0.029076564	0.46912893	1.3091737	-0.18892885	0.46009607	1.2986712	0.17479422	0.38469161	1.3413516	-0.011755625	0.51838849	0.98082639	-0.25252037	0.29062921	1.038799	0.23026056	0.76573756	0.96595865	-0.19883549	0.2891524	0.81687407	0.31566258
251	1	0.20614554	0.0095338903	-0.049115123	0.94021086	0.12584206	0.084236953	0.10055576	0.079787585	-0.075816733	0.80351569	0.092376139	0.10518863	0.11150655	0.09624832	0.0099631948	0.81611412	0.12574014	0.021536838	0.025489472	0.078277673	-0.027012863	0.76962436	0.051023285	0.042263268	0.2802501	0.40654444	-0.10166861	0.66746357	0.45376531	0.12497423	0.27805394	0.4138658	0.022209374	0.63362684	0.42418801	-0.0047028707	0.38155626	0.77742721	-0.16501768	0.48216635	0.77093021	0.17280917	0.47632245	0.8186778	-0.14576884	0.54642355	0.82683666	0.093561325	0.33528541	0.89820628	0.02947398	0.47592987	1.3077676	-0.18862695	0.46747961	1.2970764	0.17524137	0.39185491	1.339869	-0.011207522	0.52686176	0.97945027	-0.25214082	0.29745932	1.0375592	0.23058563	0.77417041	0.96726108	-0.19749225	0.29521982	0.81584703	0.31657934
252	1.004	0.20623072	0.0095401137	-0.049176453	0.94740835	0.12403225	0.083435707	0.10243546	0.080792649	-0.076449417	0.81077569	0.090564242	0.10391089	0.1129507	0.097531947	0.0093017602	0.82349917	0.12406271	0.020302875	0.026876904	0.080517724	-0.027842712	0.77691143	0.049274726	0.040898465	0.28586289	0.40567218	-0.10231225	0.6758677	0.45253896	0.12437104	0.28430305	0.41283065	0.02139666	0.64234209	0.42363303	-0.005239309	0.38833775	0.77608585	-0.16481027	0.49075599	0.76947222	0.17321382	0.48326519	0.81737021	-0.14630148	0.55457171	0.82526189	0.092966937	0.34258425	0.89691228	0.0303431	0.48276786	1.3063816	-0.18829518	0.47494254	1.2954878	0.17570915	0.39906476	1.3384078	-0.010621287	0.53525522	0.97810634	-0.25168884	0.30439654	1.0363025	0.23099044	0.78250492	0.96845761	-0.19618891	0.30152029	0.81480237	0.31750555
253	1.008	0.20632755	0.0095536372	-0.049240143	0.95397702	0.12182438	0.08246219	0.10459534	0.081785386	-0.077152317	0.81741512	0.088504383	0.10266463	0.11448088	0.098884019	0.0085800315	0.83028314	0.1220516	0.019049981	0.028267889	0.082973972	-0.028713303	0.78347519	0.047278263	0.039637555	0.29161585	0.40481958	-0.10297228	0.68419791	0.45147766	0.1236104	0.29069771	0.41167723	0.020725027	0.65106608	0.42326172	-0.0057126594	0.39526401	0.77474911	-0.16459753	0.49962344	0.768042	0.17362148	0.49029378	0.81608266	-0.14676716	0.56279185	0.82373027	0.092365354	0.35035809	0.89537795	0.031259274	0.48964076	1.3050178	-0.18793161	0.48247647	1.2939136	0.17619304	0.40631657	1.3369731	-0.010002227	0.54356697	0.97680231	-0.25118856	0.31146887	1.0350358	0.23146624	0.79072753	0.96953331	-0.19491123	0.30803481	0.81374636	0.31843767
